<svg width="36" height="36" viewBox="0 0 36 36" fill="none" xmlns="http://www.w3.org/2000/svg">
<path d="M6 0.5H30C33.0376 0.5 35.5 2.96243 35.5 6V30C35.5 33.0376 33.0376 35.5 30 35.5H6C2.96243 35.5 0.5 33.0376 0.5 30V6C0.500001 2.96243 2.96243 0.5 6 0.5Z" fill="#F6F7F9"/>
<path d="M6 0.5H30C33.0376 0.5 35.5 2.96243 35.5 6V30C35.5 33.0376 33.0376 35.5 30 35.5H6C2.96243 35.5 0.5 33.0376 0.5 30V6C0.500001 2.96243 2.96243 0.5 6 0.5Z" stroke="#DCE0E5"/>
<g clip-path="url(#clip0_1_2503)">
<path d="M28 18C28 12.4772 23.5228 8.00001 18 8.00001C12.4772 8.00001 8 12.4772 8 18C8 22.6898 11.2286 26.6249 15.5842 27.7055V21.0558H13.5222V18H15.5842V16.6832C15.5842 13.2796 17.1246 11.702 20.4662 11.702C21.0997 11.702 22.1928 11.8262 22.64 11.9504V14.7206C22.404 14.6957 21.9941 14.6833 21.4848 14.6833C19.845 14.6833 19.2115 15.3044 19.2115 16.9193V18H22.4778L21.9167 21.0558H19.2115V27.9268C24.1629 27.3287 28 23.1127 28 18Z" fill="#0866FF"/>
<path d="M21.9168 21.0558L22.4779 18H19.2116V16.9192C19.2116 15.3044 19.8451 14.6833 21.4848 14.6833C21.9941 14.6833 22.4041 14.6957 22.6401 14.7205V11.9504C22.1929 11.8262 21.0997 11.7019 20.4662 11.7019C17.1247 11.7019 15.5843 13.2796 15.5843 16.6832V18H13.5222V21.0558H15.5843V27.7055C16.358 27.8974 17.167 28 18.0001 28C18.4102 28 18.8144 27.9747 19.2116 27.9268V21.0558H21.9168Z" fill="white"/>
</g>
<defs>
<clipPath id="clip0_1_2503">
<rect width="20" height="20" fill="white" transform="translate(8 8)"/>
</clipPath>
</defs>
</svg>
