<svg width="36" height="36" viewBox="0 0 36 36" fill="none" xmlns="http://www.w3.org/2000/svg">
<path d="M6 0.5H30C33.0376 0.5 35.5 2.96243 35.5 6V30C35.5 33.0376 33.0376 35.5 30 35.5H6C2.96243 35.5 0.5 33.0376 0.5 30V6C0.500001 2.96243 2.96243 0.5 6 0.5Z" fill="#F6F7F9"/>
<path d="M6 0.5H30C33.0376 0.5 35.5 2.96243 35.5 6V30C35.5 33.0376 33.0376 35.5 30 35.5H6C2.96243 35.5 0.5 33.0376 0.5 30V6C0.500001 2.96243 2.96243 0.5 6 0.5Z" stroke="#DCE0E5"/>
<g clip-path="url(#clip0_1_2505)">
<path d="M27.6016 13.1546C27.4885 12.7291 27.2657 12.3408 26.9554 12.0285C26.6451 11.7162 26.2582 11.4908 25.8334 11.375C24.2698 10.9546 18.0198 10.9546 18.0198 10.9546C18.0198 10.9546 11.7698 10.9546 10.2061 11.375C9.78138 11.4908 9.39449 11.7162 9.08418 12.0285C8.77387 12.3408 8.55103 12.7291 8.43796 13.1546C8.01978 14.725 8.01978 18 8.01978 18C8.01978 18 8.01978 21.275 8.43796 22.8455C8.55103 23.271 8.77387 23.6593 9.08418 23.9716C9.39449 24.2839 9.78138 24.5092 10.2061 24.625C11.7698 25.0455 18.0198 25.0455 18.0198 25.0455C18.0198 25.0455 24.2698 25.0455 25.8334 24.625C26.2582 24.5092 26.6451 24.2839 26.9554 23.9716C27.2657 23.6593 27.4885 23.271 27.6016 22.8455C28.0198 21.275 28.0198 18 28.0198 18C28.0198 18 28.0198 14.725 27.6016 13.1546Z" fill="#FF0302"/>
<path d="M15.9744 20.9741V15.0264L21.2016 18.0002L15.9744 20.9741Z" fill="#FEFEFE"/>
</g>
<defs>
<clipPath id="clip0_1_2505">
<rect width="20" height="20" fill="white" transform="translate(8 8)"/>
</clipPath>
</defs>
</svg>
