<svg width="118" height="40" viewBox="0 0 118 40" fill="none" xmlns="http://www.w3.org/2000/svg">
<rect x="0.51416" width="117.241" height="40" rx="7.27273" fill="black"/>
<path d="M36.5541 10.6578H34.1538V11.3701H35.8562C35.772 12.369 34.9411 12.795 34.1567 12.795C33.1532 12.795 32.2774 12.0053 32.2774 10.8986C32.2774 9.82048 33.1122 8.99023 34.1588 8.99023C34.9665 8.99023 35.4423 9.50494 35.4423 9.50494L35.941 8.98849C35.941 8.98849 35.3009 8.27588 34.1333 8.27588C32.6467 8.27588 31.4967 9.53061 31.4967 10.8858C31.4967 12.2139 32.5785 13.5087 34.1712 13.5087C35.5721 13.5087 36.5976 12.5492 36.5976 11.1301C36.5976 10.8307 36.5541 10.6578 36.5541 10.6578Z" fill="white"/>
<path d="M37.0063 22.1376H42.2807C42.2844 22.1526 42.3761 22.5308 42.3761 23.1753C42.3761 26.2935 40.1228 28.4023 37.0446 28.4023C33.5447 28.4023 31.1675 25.5569 31.1675 22.6387C31.1675 19.6607 33.6947 16.9035 36.9614 16.9036C39.5268 16.9036 40.9334 18.4695 40.9334 18.4695L39.8375 19.6043C39.8375 19.6043 38.7919 18.4731 37.0173 18.4731C34.7175 18.4731 32.8831 20.2976 32.8831 22.6666C32.8831 25.0984 34.8074 26.8336 37.0126 26.8336C38.7362 26.8336 40.5622 25.8975 40.747 23.7028H37.0063V22.1376Z" fill="white"/>
<path fill-rule="evenodd" clip-rule="evenodd" d="M43.049 24.6696C43.049 22.6961 44.6 21.0041 46.7644 21.0041C48.5434 21.0041 50.4726 22.2648 50.4726 24.7126C50.4726 26.8482 48.8141 28.3956 46.7896 28.3956C44.5533 28.3956 43.049 26.6721 43.049 24.6696ZM48.8587 24.7028C48.8587 23.3163 47.8501 22.4557 46.7858 22.4557C45.5899 22.4557 44.6708 23.4119 44.6708 24.692C44.6708 26.0003 45.6014 26.9449 46.7809 26.9449C47.8543 26.9449 48.8587 26.0599 48.8587 24.7028Z" fill="white"/>
<path fill-rule="evenodd" clip-rule="evenodd" d="M54.9323 21.0041C52.768 21.0041 51.2169 22.6961 51.2169 24.6696C51.2169 26.6721 52.7213 28.3956 54.9578 28.3956C56.9821 28.3956 58.6407 26.8482 58.6407 24.7126C58.6407 22.2648 56.7115 21.0041 54.9323 21.0041ZM54.9538 22.4557C56.0181 22.4557 57.0267 23.3163 57.0267 24.7028C57.0267 26.0599 56.0224 26.9449 54.9488 26.9449C53.7695 26.9449 52.839 26.0003 52.839 24.692C52.839 23.4119 53.7579 22.4557 54.9538 22.4557Z" fill="white"/>
<path fill-rule="evenodd" clip-rule="evenodd" d="M59.3847 24.7007C59.3847 22.7479 60.9464 21.0081 62.9328 21.0081C63.7977 21.0081 64.4492 21.3428 64.9256 21.8562V21.2302H66.4751V27.8711C66.4751 30.4803 64.9697 31.7242 62.9945 31.7242C61.1888 31.7242 60.1745 30.6139 59.6704 29.5479L61.0909 28.9541C61.2876 29.4304 61.8539 30.2701 62.9827 30.2701C64.1513 30.2701 64.9255 29.5062 64.9255 28.2311V27.5024C64.512 27.9823 63.952 28.4005 62.8985 28.4005C61.1951 28.4005 59.3847 26.9253 59.3847 24.7007ZM63.0766 22.4568C64.0506 22.4568 65.0508 23.2884 65.0508 24.7086C65.0508 26.1522 64.0527 26.9477 63.0551 26.9477C61.9962 26.9477 61.0106 26.0879 61.0106 24.7223C61.0106 23.3035 62.0342 22.4568 63.0766 22.4568Z" fill="white"/>
<path fill-rule="evenodd" clip-rule="evenodd" d="M70.2432 24.69C70.2432 22.4901 71.8165 20.9991 73.6903 20.9991C75.1683 20.9991 76.285 21.9849 76.7638 23.1649L77.0211 23.7676L72.0655 25.8238C72.3615 26.3748 72.8393 26.9438 73.8781 26.9439C74.803 26.9439 75.3574 26.441 75.6889 25.9264L76.9664 26.7765C76.3936 27.543 75.434 28.3984 73.8704 28.3984C71.9969 28.3984 70.2432 27.0179 70.2432 24.69ZM73.755 22.4206C74.4303 22.4206 74.9162 22.7795 75.1225 23.21L71.8131 24.5932C71.6705 23.5223 72.6852 22.4206 73.755 22.4206Z" fill="white"/>
<path d="M69.3455 28.179H67.7177V17.2858H69.3455V28.179Z" fill="white"/>
<path d="M89.5417 28.179H91.1695V17.2858H89.5417V28.179Z" fill="white"/>
<path fill-rule="evenodd" clip-rule="evenodd" d="M82.5376 28.179H80.9098V17.2858L84.8473 17.2857C86.756 17.2857 88.3175 18.8473 88.3175 20.7559C88.3175 22.6645 86.756 24.2261 84.8473 24.2261H82.5376V28.179ZM82.5376 22.5983V18.9135H84.8473C85.8575 18.9135 86.6899 19.7457 86.6899 20.7559C86.6899 21.7661 85.8575 22.5983 84.8473 22.5983H82.5376Z" fill="white"/>
<path d="M103.187 31.7242L107.901 20.9994H106.123L103.99 25.8526L101.857 20.9994H100.079L103.101 27.8755L101.41 31.7242H103.187Z" fill="white"/>
<path fill-rule="evenodd" clip-rule="evenodd" d="M97.8314 28.179H99.4591V24.2612C99.7138 20.2204 94.591 19.2701 92.6525 22.183L93.9624 23.0619C94.9102 21.4049 97.6148 21.7862 97.7926 23.562C96.9798 23.3467 96.1016 23.1906 95.2994 23.2718C94.0471 23.3985 92.9749 24.1938 92.8046 25.4964C92.7125 26.2003 92.8696 27.0679 93.361 27.5967C94.1268 28.4206 95.384 28.5316 96.417 28.2501C96.9985 28.0915 97.4563 27.746 97.8314 27.2997V28.179ZM96.03 26.8302C96.9209 26.5876 97.6231 25.9359 97.8314 25.0301C97.3759 24.8826 96.9569 24.7636 96.4767 24.7056C93.6795 24.2851 94.1478 27.3433 96.03 26.8302Z" fill="white"/>
<path d="M47.1056 13.4072H46.3649V8.44985H47.1056V13.4072Z" fill="white"/>
<path d="M42.2164 13.4072H42.9572V9.19056H44.1732V8.44985H41.0005V9.19056H42.2164V13.4072Z" fill="white"/>
<path d="M40.2194 13.4072H37.3785V8.44985H40.2194V9.19056H38.1194V10.5582H39.9666V11.2989H38.1194V12.6664H40.2194V13.4072Z" fill="white"/>
<path d="M49.6653 13.4072V9.19056H50.8813V8.44985H47.7087V9.19056H48.9246V13.4072H49.6653Z" fill="white"/>
<path fill-rule="evenodd" clip-rule="evenodd" d="M52.7873 10.8858C52.7873 9.53049 53.9374 8.27588 55.424 8.27588C56.9107 8.27588 58.0608 9.53049 58.0608 10.8858C58.0608 12.2032 56.9961 13.4879 55.424 13.5083C53.852 13.4879 52.7873 12.2032 52.7873 10.8858ZM55.424 12.7946C54.4303 12.7824 53.5681 11.9968 53.5681 10.8986C53.5681 9.82931 54.3894 9.00382 55.424 8.99046C56.4588 9.00382 57.28 9.82931 57.28 10.8986C57.28 11.9968 56.4178 12.7824 55.424 12.7946Z" fill="white"/>
<path d="M59.5415 13.4072H58.8007V8.44985H59.5415L61.9194 12.059V8.44985H62.6602V13.4072H61.9207L59.5415 9.79621V13.4072Z" fill="white"/>
<path d="M11.27 14.4593L19.6397 22.8164L11.3102 31.2468C11.0672 31.0924 10.9368 30.7579 10.9346 30.3259L10.8592 15.3632C10.8568 14.89 11.0289 14.6014 11.27 14.4593Z" fill="white"/>
<path d="M12.2221 14.4706L22.3997 20.0231L19.9859 22.4659L11.867 14.359C11.99 14.3751 12.1134 14.4112 12.2221 14.4706Z" fill="white"/>
<path d="M22.8523 25.328L20.3346 22.814L22.8497 20.2686L26.3133 22.1581C27.1666 22.6233 26.7302 23.2054 26.3133 23.4335L22.8523 25.328Z" fill="white"/>
<path d="M12.2221 31.1458C12.1452 31.1888 12.0711 31.2224 12.0002 31.2492L19.9884 23.1645L22.4018 25.5743L12.2221 31.1458Z" fill="white"/>
</svg>
