<svg width="36" height="36" viewBox="0 0 36 36" fill="none" xmlns="http://www.w3.org/2000/svg">
<path d="M6 0.5H30C33.0376 0.5 35.5 2.96243 35.5 6V30C35.5 33.0376 33.0376 35.5 30 35.5H6C2.96243 35.5 0.5 33.0376 0.5 30V6C0.500001 2.96243 2.96243 0.5 6 0.5Z" fill="#F6F7F9"/>
<path d="M6 0.5H30C33.0376 0.5 35.5 2.96243 35.5 6V30C35.5 33.0376 33.0376 35.5 30 35.5H6C2.96243 35.5 0.5 33.0376 0.5 30V6C0.500001 2.96243 2.96243 0.5 6 0.5Z" stroke="#DCE0E5"/>
<g clip-path="url(#clip0_1_2509)">
<path d="M18 28C23.5228 28 28 23.5228 28 18C28 12.4772 23.5228 8 18 8C12.4772 8 8 12.4772 8 18C8 23.5228 12.4772 28 18 28Z" fill="url(#paint0_linear_1_2509)"/>
<path fill-rule="evenodd" clip-rule="evenodd" d="M12.5266 17.8945C15.4418 16.6244 17.3857 15.787 18.3584 15.3825C21.1355 14.2274 21.7125 14.0267 22.0887 14.0201C22.1714 14.0186 22.3563 14.0391 22.4762 14.1364C22.5773 14.2184 22.6052 14.3293 22.6185 14.4072C22.6318 14.485 22.6484 14.6623 22.6352 14.8008C22.4847 16.3821 21.8335 20.2193 21.5022 21.9903C21.3621 22.7397 21.0861 22.991 20.8188 23.0156C20.2381 23.069 19.7972 22.6318 19.2347 22.2631C18.3546 21.6861 17.8573 21.327 17.003 20.764C16.0157 20.1134 16.6558 19.7558 17.2184 19.1714C17.3657 19.0184 19.9243 16.6911 19.9739 16.48C19.98 16.4536 19.9858 16.3552 19.9273 16.3032C19.8689 16.2513 19.7826 16.269 19.7203 16.2832C19.632 16.3032 18.226 17.2325 15.5022 19.0711C15.1031 19.3452 14.7416 19.4787 14.4178 19.4717C14.0607 19.464 13.3739 19.2698 12.8633 19.1039C12.2371 18.9003 11.7393 18.7927 11.7827 18.4469C11.8052 18.2669 12.0532 18.0827 12.5266 17.8945Z" fill="white"/>
</g>
<defs>
<linearGradient id="paint0_linear_1_2509" x1="1008" y1="8" x2="1008" y2="1993.17" gradientUnits="userSpaceOnUse">
<stop stop-color="#2AABEE"/>
<stop offset="1" stop-color="#229ED9"/>
</linearGradient>
<clipPath id="clip0_1_2509">
<rect width="20" height="20" fill="white" transform="translate(8 8)"/>
</clipPath>
</defs>
</svg>
